# xmcd
#
# Track frame offsets:
# 150
# 8435
# 17248
# 40443
# 50862
# 70694
# 93098
# 110800
# 123458
# 137786
# 154330
# 169329
# 179714
# 195145
# 201721
# 242727
# 255343
# 267681
#
# Disc length: 3702 seconds
#
# Revision: 1
# Processed by: cddbd v1.5.1PL0 Copyright (c) Steve Scherf et al.
# Submitted via: CedeCatalogueitor 2.6.0.4 http://personales.ya.com/cdcatalogueitor
#
DISCID=0c0e7412
DTITLE=Roque Montoya JARRITO - IN MEMORIAM (Disco-2)
DYEAR=1997
DGENRE=Flamenco
TTITLE0=Fueron Tus Ojos Negros
TTITLE1=No Me Atermina Sali-Con Esta Angustia Mortal
TTITLE2=Yo Siempre Estaré Contigo
TTITLE3=Si Tú Leyera Mi Pensamiento
TTITLE4=La Reja De Tu Ventana
TTITLE5=Parroquia Del Salvador
TTITLE6=Baile Y Taconeo
TTITLE7=Por Málaga Y Antequera
TTITLE8=La Lluvia Parece Un Llanto
TTITLE9=Donde Están Los Cantaores
TTITLE10=Loquito Me Vuelvo
TTITLE11=La Cunita
TTITLE12=Arco De La Macarena
TTITLE13=Del Querer Que Te Tenia
TTITLE14=Detente Judas Imprudente
TTITLE15=Quisiera Que Me Quisieras
TTITLE16=Esperanza De Color Verde
TTITLE17=¡Qué Bonito Es Jerez!
EXTD=
EXTT0=
EXTT1=
EXTT2=
EXTT3=
EXTT4=
EXTT5=
EXTT6=
EXTT7=
EXTT8=
EXTT9=
EXTT10=
EXTT11=
EXTT12=
EXTT13=
EXTT14=
EXTT15=
EXTT16=
EXTT17=
PLAYORDER=
